<svg width="74" height="68" viewBox="0 0 74 68" fill="none" xmlns="http://www.w3.org/2000/svg">
<g filter="url(#filter0_ii_13_47)">
<path d="M64.75 9.25957H19.8008L19.3672 7.5234C18.8854 5.30497 17.8014 3.49645 16.1152 2.09787C14.429 0.699291 12.4297 0 10.1172 0H3.03516C2.16797 0 1.44531 0.289362 0.867188 0.868085C0.289062 1.44681 0 2.21844 0 3.18298C0 4.05106 0.289062 4.77447 0.867188 5.35319C1.44531 5.93192 2.16797 6.22128 3.03516 6.22128H10.1172C11.9479 6.22128 13.0078 7.04113 13.2969 8.68085L20.3789 45.7192C20.957 47.7447 22.0892 49.3844 23.7754 50.6383C25.4616 51.8922 27.3164 52.5191 29.3398 52.5191H58.5352C59.4987 52.5191 60.2695 52.2298 60.8477 51.6511C61.4258 51.0723 61.7148 50.3489 61.7148 49.4809C61.7148 47.3589 60.6549 46.2979 58.5352 46.2979H29.3398C27.9909 46.2979 27.0273 45.7192 26.4492 44.5617L26.1602 43.2596H57.0898C59.0169 43.2596 60.7754 42.6809 62.3652 41.5234C63.9551 40.366 65.0391 38.8709 65.6172 37.0383L74 19.2426V18.5191C74 15.9149 73.1087 13.7206 71.3262 11.9362C69.5436 10.1518 67.3516 9.25957 64.75 9.25957ZM27.75 37.0383H25.0039L20.957 15.4809H27.75V37.0383ZM40.0352 37.0383H33.9648V15.4809H40.0352V37.0383ZM52.4648 37.0383H46.25V15.4809H52.4648V37.0383ZM60.125 34.5787V34.8681C59.8359 35.8326 59.306 36.4596 58.5352 36.7489V15.4809H64.75C66.4844 15.4809 67.4961 16.3007 67.7852 17.9404L60.125 34.5787ZM37 61.7787C37 63.5149 36.3978 64.9858 35.1934 66.1915C33.9889 67.3972 32.5195 68 30.7852 68C29.1471 68 27.7259 67.3972 26.5215 66.1915C25.3171 64.9858 24.7148 63.5149 24.7148 61.7787C24.7148 60.0426 25.3171 58.5716 26.5215 57.366C27.7259 56.1603 29.1471 55.5574 30.7852 55.5574C32.5195 55.5574 33.9889 56.1603 35.1934 57.366C36.3978 58.5716 37 60.0426 37 61.7787ZM61.7148 61.7787C61.7148 63.5149 61.1126 64.9858 59.9082 66.1915C58.7038 67.3972 57.2344 68 55.5 68C53.7656 68 52.2962 67.3972 51.0918 66.1915C49.8874 64.9858 49.2852 63.5149 49.2852 61.7787C49.2852 60.0426 49.8874 58.5716 51.0918 57.366C52.2962 56.1603 53.7656 55.5574 55.5 55.5574C57.2344 55.5574 58.7038 56.1603 59.9082 57.366C61.1126 58.5716 61.7148 60.0426 61.7148 61.7787Z" fill="#411DCF"/>
</g>
<defs>
<filter id="filter0_ii_13_47" x="-5" y="-3" width="79" height="75" filterUnits="userSpaceOnUse" color-interpolation-filters="sRGB">
<feFlood flood-opacity="0" result="BackgroundImageFix"/>
<feBlend mode="normal" in="SourceGraphic" in2="BackgroundImageFix" result="shape"/>
<feColorMatrix in="SourceAlpha" type="matrix" values="0 0 0 0 0 0 0 0 0 0 0 0 0 0 0 0 0 0 127 0" result="hardAlpha"/>
<feOffset dx="-6" dy="-3"/>
<feGaussianBlur stdDeviation="2.5"/>
<feComposite in2="hardAlpha" operator="arithmetic" k2="-1" k3="1"/>
<feColorMatrix type="matrix" values="0 0 0 0 1 0 0 0 0 1 0 0 0 0 1 0 0 0 0.25 0"/>
<feBlend mode="normal" in2="shape" result="effect1_innerShadow_13_47"/>
<feColorMatrix in="SourceAlpha" type="matrix" values="0 0 0 0 0 0 0 0 0 0 0 0 0 0 0 0 0 0 127 0" result="hardAlpha"/>
<feOffset dy="4"/>
<feGaussianBlur stdDeviation="2"/>
<feComposite in2="hardAlpha" operator="arithmetic" k2="-1" k3="1"/>
<feColorMatrix type="matrix" values="0 0 0 0 0.819608 0 0 0 0 0.85098 0 0 0 0 0.901961 0 0 0 1 0"/>
<feBlend mode="normal" in2="effect1_innerShadow_13_47" result="effect2_innerShadow_13_47"/>
</filter>
</defs>
</svg>
